<svg width="140" height="24" viewBox="0 0 140 24" fill="none" xmlns="http://www.w3.org/2000/svg">
<g clip-path="url(#clip0_2_2150)">
<path d="M14.9549 4.90064L16.3234 7.69823C16.3686 7.79235 16.4575 7.85739 16.5602 7.87152L24.9239 9.099C24.9573 9.10375 24.9851 9.12726 24.9956 9.15961C25.0061 9.19195 24.9975 9.22751 24.9733 9.25129L18.9214 15.2114C18.8475 15.2845 18.8135 15.3893 18.8303 15.4924L20.2614 23.8943C20.2683 23.9285 20.2546 23.9636 20.2264 23.9838C20.1983 24.004 20.1609 24.0054 20.1313 23.9875L12.6457 20.0176C12.5541 19.9691 12.4446 19.9691 12.353 20.0176L4.87135 23.9862C4.84158 24.0029 4.80498 24.0008 4.77722 23.981C4.74946 23.9611 4.73548 23.9269 4.74125 23.893L6.17228 15.4911C6.19013 15.3882 6.15654 15.2831 6.08251 15.2101L0.0266802 9.25129C0.00253977 9.22751 -0.00610232 9.19195 0.0043984 9.15961C0.0148991 9.12726 0.0427149 9.10375 0.0761156 9.099L8.4411 7.87152C8.54379 7.85739 8.63266 7.79235 8.67787 7.69823L12.418 0.0498211C12.4329 0.0193177 12.4637 0 12.4974 0C12.5311 0 12.5619 0.0193177 12.5768 0.0498211L14.5581 4.10114" fill="#FFE483"/>
<path d="M14.9549 4.90064L16.3234 7.69823C16.3686 7.79235 16.4575 7.85739 16.5602 7.87152L24.9239 9.099C24.9573 9.10375 24.9851 9.12726 24.9956 9.15961C25.0061 9.19195 24.9975 9.22751 24.9733 9.25129L18.9214 15.2114C18.8475 15.2845 18.8135 15.3893 18.8303 15.4924L20.2614 23.8943C20.2683 23.9285 20.2546 23.9636 20.2264 23.9838C20.1983 24.0039 20.1609 24.0054 20.1313 23.9875L12.6457 20.0176C12.5541 19.9691 12.4446 19.9691 12.353 20.0176L4.87134 23.9862C4.84158 24.0029 4.80498 24.0008 4.77722 23.981C4.74946 23.9611 4.73548 23.9269 4.74125 23.893L6.17227 15.4911C6.19013 15.3882 6.15654 15.2831 6.08251 15.2101L0.0266802 9.25129C0.00253977 9.22751 -0.00610232 9.19195 0.0043984 9.15961C0.0148991 9.12726 0.0427149 9.10375 0.0761156 9.099L8.4411 7.87152C8.54379 7.85739 8.63266 7.79235 8.67787 7.69823L12.418 0.0498211C12.4329 0.0193177 12.4637 0 12.4974 0C12.5311 0 12.5619 0.0193177 12.5768 0.0498211L14.5581 4.10114" stroke="#0D052C" stroke-width="1.5" stroke-linecap="round" stroke-linejoin="round"/>
</g>
<g clip-path="url(#clip1_2_2150)">
<path d="M43.9549 4.90064L45.3234 7.69823C45.3686 7.79235 45.4575 7.85739 45.5602 7.87152L53.9239 9.099C53.9573 9.10375 53.9851 9.12726 53.9956 9.15961C54.0061 9.19195 53.9975 9.22751 53.9733 9.25129L47.9214 15.2114C47.8475 15.2845 47.8135 15.3893 47.8303 15.4924L49.2614 23.8943C49.2683 23.9285 49.2546 23.9636 49.2264 23.9838C49.1983 24.004 49.1609 24.0054 49.1313 23.9875L41.6457 20.0176C41.5541 19.9691 41.4446 19.9691 41.353 20.0176L33.8713 23.9862C33.8416 24.0029 33.805 24.0008 33.7772 23.981C33.7495 23.9611 33.7355 23.9269 33.7413 23.893L35.1723 15.4911C35.1901 15.3882 35.1565 15.2831 35.0825 15.2101L29.0267 9.25129C29.0025 9.22751 28.9939 9.19195 29.0044 9.15961C29.0149 9.12726 29.0427 9.10375 29.0761 9.099L37.4411 7.87152C37.5438 7.85739 37.6327 7.79235 37.6779 7.69823L41.418 0.0498211C41.4329 0.0193177 41.4637 0 41.4974 0C41.5311 0 41.5619 0.0193177 41.5768 0.0498211L43.5581 4.10114" fill="#FFE483"/>
<path d="M43.9549 4.90064L45.3234 7.69823C45.3686 7.79235 45.4575 7.85739 45.5602 7.87152L53.9239 9.099C53.9573 9.10375 53.9851 9.12726 53.9956 9.15961C54.0061 9.19195 53.9975 9.22751 53.9733 9.25129L47.9214 15.2114C47.8475 15.2845 47.8135 15.3893 47.8303 15.4924L49.2614 23.8943C49.2683 23.9285 49.2546 23.9636 49.2264 23.9838C49.1983 24.0039 49.1609 24.0054 49.1313 23.9875L41.6457 20.0176C41.5541 19.9691 41.4446 19.9691 41.353 20.0176L33.8713 23.9862C33.8416 24.0029 33.805 24.0008 33.7772 23.981C33.7495 23.9611 33.7355 23.9269 33.7413 23.893L35.1723 15.4911C35.1901 15.3882 35.1565 15.2831 35.0825 15.2101L29.0267 9.25129C29.0025 9.22751 28.9939 9.19195 29.0044 9.15961C29.0149 9.12726 29.0427 9.10375 29.0761 9.099L37.4411 7.87152C37.5438 7.85739 37.6327 7.79235 37.6779 7.69823L41.418 0.0498211C41.4329 0.0193177 41.4637 0 41.4974 0C41.5311 0 41.5619 0.0193177 41.5768 0.0498211L43.5581 4.10114" stroke="#0D052C" stroke-width="1.5" stroke-linecap="round" stroke-linejoin="round"/>
</g>
<g clip-path="url(#clip2_2_2150)">
<path d="M72.3567 4.90064L73.6705 7.69823C73.7139 7.79235 73.7992 7.85739 73.8978 7.87152L81.9269 9.099C81.959 9.10375 81.9857 9.12726 81.9958 9.15961C82.0059 9.19195 81.9976 9.22751 81.9744 9.25129L76.1645 15.2114C76.0936 15.2845 76.061 15.3893 76.0771 15.4924L77.4509 23.8943C77.4576 23.9285 77.4444 23.9636 77.4174 23.9838C77.3903 24.004 77.3545 24.0054 77.326 23.9875L70.1399 20.0176C70.0519 19.9691 69.9468 19.9691 69.8589 20.0176L62.6765 23.9862C62.6479 24.0029 62.6128 24.0008 62.5861 23.981C62.5595 23.9611 62.5461 23.9269 62.5516 23.893L63.9254 15.4911C63.9425 15.3882 63.9103 15.2831 63.8392 15.2101L58.0256 9.25129C58.0024 9.22751 57.9941 9.19195 58.0042 9.15961C58.0143 9.12726 58.041 9.10375 58.0731 9.099L66.1035 7.87152C66.202 7.85739 66.2874 7.79235 66.3308 7.69823L69.9213 0.0498211C69.9356 0.0193177 69.9652 0 69.9975 0C70.0299 0 70.0594 0.0193177 70.0737 0.0498211L71.9757 4.10114" fill="#FFE483"/>
<path d="M72.3567 4.90064L73.6705 7.69823C73.7139 7.79235 73.7992 7.85739 73.8978 7.87152L81.9269 9.099C81.959 9.10375 81.9857 9.12726 81.9958 9.15961C82.0059 9.19195 81.9976 9.22751 81.9744 9.25129L76.1645 15.2114C76.0936 15.2845 76.061 15.3893 76.0771 15.4924L77.4509 23.8943C77.4576 23.9285 77.4444 23.9636 77.4174 23.9838C77.3903 24.0039 77.3545 24.0054 77.326 23.9875L70.1399 20.0176C70.0519 19.9691 69.9468 19.9691 69.8589 20.0176L62.6765 23.9862C62.6479 24.0029 62.6128 24.0008 62.5861 23.981C62.5595 23.9611 62.5461 23.9269 62.5516 23.893L63.9254 15.4911C63.9425 15.3882 63.9103 15.2831 63.8392 15.2101L58.0256 9.25129C58.0024 9.22751 57.9941 9.19195 58.0042 9.15961C58.0143 9.12726 58.041 9.10375 58.0731 9.099L66.1035 7.87152C66.202 7.85739 66.2874 7.79235 66.3308 7.69823L69.9213 0.0498211C69.9356 0.0193177 69.9652 0 69.9975 0C70.0299 0 70.0594 0.0193177 70.0737 0.0498211L71.9757 4.10114" stroke="#0D052C" stroke-width="1.5" stroke-linecap="round" stroke-linejoin="round"/>
</g>
<g clip-path="url(#clip3_2_2150)">
<path d="M100.955 4.90064L102.323 7.69823C102.369 7.79235 102.458 7.85739 102.56 7.87152L110.924 9.099C110.957 9.10375 110.985 9.12726 110.996 9.15961C111.006 9.19195 110.997 9.22751 110.973 9.25129L104.921 15.2114C104.847 15.2845 104.813 15.3893 104.83 15.4924L106.261 23.8943C106.268 23.9285 106.255 23.9636 106.226 23.9838C106.198 24.004 106.161 24.0054 106.131 23.9875L98.6457 20.0176C98.5541 19.9691 98.4446 19.9691 98.353 20.0176L90.8713 23.9862C90.8416 24.0029 90.805 24.0008 90.7772 23.981C90.7495 23.9611 90.7355 23.9269 90.7413 23.893L92.1723 15.4911C92.1901 15.3882 92.1565 15.2831 92.0825 15.2101L86.0267 9.25129C86.0025 9.22751 85.9939 9.19195 86.0044 9.15961C86.0149 9.12726 86.0427 9.10375 86.0761 9.099L94.4411 7.87152C94.5438 7.85739 94.6327 7.79235 94.6779 7.69823L98.418 0.0498211C98.4329 0.0193177 98.4637 0 98.4974 0C98.5311 0 98.5619 0.0193177 98.5768 0.0498211L100.558 4.10114" fill="#FFE483"/>
<path d="M100.955 4.90064L102.323 7.69823C102.369 7.79235 102.458 7.85739 102.56 7.87152L110.924 9.099C110.957 9.10375 110.985 9.12726 110.996 9.15961C111.006 9.19195 110.997 9.22751 110.973 9.25129L104.921 15.2114C104.847 15.2845 104.813 15.3893 104.83 15.4924L106.261 23.8943C106.268 23.9285 106.255 23.9636 106.226 23.9838C106.198 24.0039 106.161 24.0054 106.131 23.9875L98.6457 20.0176C98.5541 19.9691 98.4446 19.9691 98.353 20.0176L90.8713 23.9862C90.8416 24.0029 90.805 24.0008 90.7772 23.981C90.7495 23.9611 90.7355 23.9269 90.7413 23.893L92.1723 15.4911C92.1901 15.3882 92.1565 15.2831 92.0825 15.2101L86.0267 9.25129C86.0025 9.22751 85.9939 9.19195 86.0044 9.15961C86.0149 9.12726 86.0427 9.10375 86.0761 9.099L94.4411 7.87152C94.5438 7.85739 94.6327 7.79235 94.6779 7.69823L98.418 0.0498211C98.4329 0.0193177 98.4637 0 98.4974 0C98.5311 0 98.5619 0.0193177 98.5768 0.0498211L100.558 4.10114" stroke="#0D052C" stroke-width="1.5" stroke-linecap="round" stroke-linejoin="round"/>
</g>
<g clip-path="url(#clip4_2_2150)">
<path d="M129.955 4.90064L131.323 7.69823C131.369 7.79235 131.458 7.85739 131.56 7.87152L139.924 9.099C139.957 9.10375 139.985 9.12726 139.996 9.15961C140.006 9.19195 139.997 9.22751 139.973 9.25129L133.921 15.2114C133.847 15.2845 133.813 15.3893 133.83 15.4924L135.261 23.8943C135.268 23.9285 135.255 23.9636 135.226 23.9838C135.198 24.004 135.161 24.0054 135.131 23.9875L127.646 20.0176C127.554 19.9691 127.445 19.9691 127.353 20.0176L119.871 23.9862C119.842 24.0029 119.805 24.0008 119.777 23.981C119.749 23.9611 119.735 23.9269 119.741 23.893L121.172 15.4911C121.19 15.3882 121.157 15.2831 121.083 15.2101L115.027 9.25129C115.003 9.22751 114.994 9.19195 115.004 9.15961C115.015 9.12726 115.043 9.10375 115.076 9.099L123.441 7.87152C123.544 7.85739 123.633 7.79235 123.678 7.69823L127.418 0.0498211C127.433 0.0193177 127.464 0 127.497 0C127.531 0 127.562 0.0193177 127.577 0.0498211L129.558 4.10114" fill="#FFE483"/>
<path d="M129.955 4.90064L131.323 7.69823C131.369 7.79235 131.458 7.85739 131.56 7.87152L139.924 9.099C139.957 9.10375 139.985 9.12726 139.996 9.15961C140.006 9.19195 139.997 9.22751 139.973 9.25129L133.921 15.2114C133.847 15.2845 133.813 15.3893 133.83 15.4924L135.261 23.8943C135.268 23.9285 135.255 23.9636 135.226 23.9838C135.198 24.0039 135.161 24.0054 135.131 23.9875L127.646 20.0176C127.554 19.9691 127.445 19.9691 127.353 20.0176L119.871 23.9862C119.842 24.0029 119.805 24.0008 119.777 23.981C119.749 23.9611 119.735 23.9269 119.741 23.893L121.172 15.4911C121.19 15.3882 121.157 15.2831 121.083 15.2101L115.027 9.25129C115.003 9.22751 114.994 9.19195 115.004 9.15961C115.015 9.12726 115.043 9.10375 115.076 9.099L123.441 7.87152C123.544 7.85739 123.633 7.79235 123.678 7.69823L127.418 0.0498211C127.433 0.0193177 127.464 0 127.497 0C127.531 0 127.562 0.0193177 127.577 0.0498211L129.558 4.10114" stroke="#0D052C" stroke-width="1.5" stroke-linecap="round" stroke-linejoin="round"/>
</g>
<defs>
<clipPath id="clip0_2_2150">
<rect width="25" height="24" fill="white"/>
</clipPath>
<clipPath id="clip1_2_2150">
<rect width="25" height="24" fill="white" transform="translate(29)"/>
</clipPath>
<clipPath id="clip2_2_2150">
<rect width="24" height="24" fill="white" transform="translate(58)"/>
</clipPath>
<clipPath id="clip3_2_2150">
<rect width="25" height="24" fill="white" transform="translate(86)"/>
</clipPath>
<clipPath id="clip4_2_2150">
<rect width="25" height="24" fill="white" transform="translate(115)"/>
</clipPath>
</defs>
</svg>
